solid 1
 facet normal 0.249865        0 -0.968281
  outer loop
   vertex -1.40505e-14     -4.5    -12.4
   vertex        6     -4.5 -10.8517
   vertex        6    -27.5 -10.8517
  endloop
 endfacet
 facet normal 0.249865 1.19646e-16 -0.968281
  outer loop
   vertex -1.40505e-14     -4.5    -12.4
   vertex        6    -27.5 -10.8517
   vertex -3.03712e-15    -27.5    -12.4
  endloop
 endfacet
 facet normal -0.249865        0 -0.968281
  outer loop
   vertex -1.40505e-14     -4.5    -12.4
   vertex       -6    -27.5 -10.8517
   vertex       -6     -4.5 -10.8517
  endloop
 endfacet
 facet normal -0.249865 -1.24639e-16 -0.968281
  outer loop
   vertex       -6    -27.5 -10.8517
   vertex -1.40505e-14     -4.5    -12.4
   vertex -3.03712e-15    -27.5    -12.4
  endloop
 endfacet
 facet normal       -0       -1        0
  outer loop
   vertex 1.80268e-13    -27.5 -9.38002
   vertex       -6    -27.5 -7.21005
   vertex       -6    -27.5 -10.8517
  endloop
 endfacet
 facet normal        0       -1       -0
  outer loop
   vertex        6    -27.5 -7.21005
   vertex 1.80268e-13    -27.5 -9.38002
   vertex        6    -27.5 -10.8517
  endloop
 endfacet
 facet normal        0       -1        0
  outer loop
   vertex -3.03712e-15    -27.5    -12.4
   vertex        6    -27.5 -10.8517
   vertex 1.80268e-13    -27.5 -9.38002
  endloop
 endfacet
 facet normal        0       -1        0
  outer loop
   vertex -3.03712e-15    -27.5    -12.4
   vertex 1.80268e-13    -27.5 -9.38002
   vertex       -6    -27.5 -10.8517
  endloop
 endfacet
 facet normal 0.249865       -0 0.968281
  outer loop
   vertex        6    -27.5  10.8517
   vertex        6     -4.5  10.8517
   vertex -3.03712e-15    -27.5     12.4
  endloop
 endfacet
 facet normal 0.249865       -0 0.968281
  outer loop
   vertex -3.03712e-15    -27.5     12.4
   vertex        6     -4.5  10.8517
   vertex -3.03712e-15     -4.5     12.4
  endloop
 endfacet
 facet normal -0.249865        0 0.968281
  outer loop
   vertex -3.03712e-15    -27.5     12.4
   vertex -3.03712e-15     -4.5     12.4
   vertex       -6     -4.5  10.8517
  endloop
 endfacet
 facet normal -0.249865        0 0.968281
  outer loop
   vertex       -6     -4.5  10.8517
   vertex       -6    -27.5  10.8517
   vertex -3.03712e-15    -27.5     12.4
  endloop
 endfacet
 facet normal       -0       -1        0
  outer loop
   vertex        6    -27.5  10.8517
   vertex -3.03712e-15    -27.5     12.4
   vertex -2.77225e-13    -27.5  9.38002
  endloop
 endfacet
 facet normal        0       -1        0
  outer loop
   vertex -2.77225e-13    -27.5  9.38002
   vertex -3.03712e-15    -27.5     12.4
   vertex       -6    -27.5  10.8517
  endloop
 endfacet
 facet normal        0       -1        0
  outer loop
   vertex       -6    -27.5  7.21005
   vertex -2.77225e-13    -27.5  9.38002
   vertex       -6    -27.5  10.8517
  endloop
 endfacet
 facet normal        0       -1        0
  outer loop
   vertex -2.77225e-13    -27.5  9.38002
   vertex        6    -27.5  7.21005
   vertex        6    -27.5  10.8517
  endloop
 endfacet
 facet normal -0.177998 -0.110929 0.977758
  outer loop
   vertex -3.20566      -30  8.51281
   vertex 1.67098e-15      -30  9.09639
   vertex -2.77225e-13    -27.5  9.38002
  endloop
 endfacet
 facet normal -0.336802 -0.138974 0.931263
  outer loop
   vertex -2.77225e-13    -27.5  9.38002
   vertex       -6    -27.5  7.21005
   vertex       -6   -28.75  7.02351
  endloop
 endfacet
 facet normal -0.393192 0.192284 0.899126
  outer loop
   vertex -3.20566      -30  8.51281
   vertex -2.77225e-13    -27.5  9.38002
   vertex       -6   -28.75  7.02351
  endloop
 endfacet
 facet normal 0.338067 0.109238 0.934761
  outer loop
   vertex        6    -27.5  7.21005
   vertex -2.77225e-13    -27.5  9.38002
   vertex  3.20566      -30  8.51281
  endloop
 endfacet
 facet normal 0.510162 -0.126945 0.850658
  outer loop
   vertex        6    -27.5  7.21005
   vertex  3.20566      -30  8.51281
   vertex        6 -29.9998    6.837
  endloop
 endfacet
 facet normal -0.510162 -0.126946 0.850658
  outer loop
   vertex -3.20566      -30  8.51281
   vertex       -6  -29.375  6.93024
   vertex       -6 -29.9998    6.837
  endloop
 endfacet
 facet normal 0.177998 -0.110929 0.977758
  outer loop
   vertex 1.67098e-15      -30  9.09639
   vertex  3.20566      -30  8.51281
   vertex -2.77225e-13    -27.5  9.38002
  endloop
 endfacet
 facet normal -0.510162 -0.126945 0.850658
  outer loop
   vertex       -6  -29.375  6.93024
   vertex -3.20566      -30  8.51281
   vertex       -6   -28.75  7.02351
  endloop
 endfacet
 facet normal 0.177998 -0.110929 -0.977758
  outer loop
   vertex  3.20566      -30 -8.51281
   vertex -4.5966e-15      -30 -9.09639
   vertex 1.80268e-13    -27.5 -9.38002
  endloop
 endfacet
 facet normal 0.336802 -0.138974 -0.931263
  outer loop
   vertex 1.80268e-13    -27.5 -9.38002
   vertex        6    -27.5 -7.21005
   vertex        6   -28.75 -7.02351
  endloop
 endfacet
 facet normal 0.393192 0.192284 -0.899126
  outer loop
   vertex  3.20566      -30 -8.51281
   vertex 1.80268e-13    -27.5 -9.38002
   vertex        6   -28.75 -7.02351
  endloop
 endfacet
 facet normal -0.338067 0.109238 -0.934761
  outer loop
   vertex       -6    -27.5 -7.21005
   vertex 1.80268e-13    -27.5 -9.38002
   vertex -3.20566      -30 -8.51281
  endloop
 endfacet
 facet normal -0.510162 -0.126945 -0.850658
  outer loop
   vertex       -6    -27.5 -7.21005
   vertex -3.20566      -30 -8.51281
   vertex       -6 -29.9998   -6.837
  endloop
 endfacet
 facet normal 0.510162 -0.126946 -0.850658
  outer loop
   vertex  3.20566      -30 -8.51281
   vertex        6  -29.375 -6.93024
   vertex        6 -29.9998   -6.837
  endloop
 endfacet
 facet normal -0.177998 -0.110929 -0.977758
  outer loop
   vertex -4.5966e-15      -30 -9.09639
   vertex -3.20566      -30 -8.51281
   vertex 1.80268e-13    -27.5 -9.38002
  endloop
 endfacet
 facet normal 0.510162 -0.126945 -0.850658
  outer loop
   vertex        6  -29.375 -6.93024
   vertex  3.20566      -30 -8.51281
   vertex        6   -28.75 -7.02351
  endloop
 endfacet
 facet normal -0.37782 -0.0146022 0.925764
  outer loop
   vertex -3.65167 -39.0506  7.65259
   vertex       -6 -38.8856   6.6968
   vertex       -6 -40.6627  6.66877
  endloop
 endfacet
 facet normal -0.513512 -0.056077 0.856248
  outer loop
   vertex -3.20566      -30  8.51281
   vertex       -6      -30  6.83698
   vertex -3.65167 -39.0506  7.65259
  endloop
 endfacet
 facet normal -0.909937 -0.279357 -0.306553
  outer loop
   vertex       -6 -48.9214  1.61176
   vertex -5.13855 -54.6706   4.2939
   vertex       -6  -54.136  6.36376
  endloop
 endfacet
 facet normal -0.178692 -0.0677261 0.981571
  outer loop
   vertex 1.67098e-15      -30  9.09639
   vertex -3.20566      -30  8.51281
   vertex 4.44089e-16 -38.7013  8.49602
  endloop
 endfacet
 facet normal -0.845087 0.171437 0.506397
  outer loop
   vertex       -6 -51.0447  8.92419
   vertex -5.13855 -49.2203  9.74416
   vertex       -6 -44.2169  6.61269
  endloop
 endfacet
 facet normal -0.627952 0.332326  0.70373
  outer loop
   vertex -3.02268 -47.9379  11.0266
   vertex       -6 -44.2169  6.61269
   vertex -5.13855 -49.2203  9.74416
  endloop
 endfacet
 facet normal -0.242198 0.322301  0.91513
  outer loop
   vertex -3.65167 -39.0506  7.65259
   vertex -2.82264e-29 -47.4036  11.5609
   vertex 4.44089e-16 -38.7013  8.49602
  endloop
 endfacet
 facet normal -0.216861 -0.0817709 0.972772
  outer loop
   vertex -3.20566      -30  8.51281
   vertex -3.65167 -39.0506  7.65259
   vertex 4.44089e-16 -38.7013  8.49602
  endloop
 endfacet
 facet normal -0.220841 0.332464 0.916895
  outer loop
   vertex -3.02268 -47.9379  11.0266
   vertex -2.82264e-29 -47.4036  11.5609
   vertex -3.65167 -39.0506  7.65259
  endloop
 endfacet
 facet normal -0.72701 0.198132 0.657419
  outer loop
   vertex       -6 -44.2169  6.61269
   vertex -3.02268 -47.9379  11.0266
   vertex -3.65167 -39.0506  7.65259
  endloop
 endfacet
 facet normal -0.649779 0.496547 0.575525
  outer loop
   vertex -2.39369 -55.1131  17.9273
   vertex -3.02268 -47.9379  11.0266
   vertex -5.13855 -49.2203  9.74416
  endloop
 endfacet
 facet normal 0.178692 -0.0677261 0.981571
  outer loop
   vertex 4.44089e-16 -38.7013  8.49602
   vertex  3.20566      -30  8.51281
   vertex 1.67098e-15      -30  9.09639
  endloop
 endfacet
 facet normal 0.242286 0.329317 0.912605
  outer loop
   vertex  3.65167 -39.0506  7.65259
   vertex 4.44089e-16 -38.7013  8.49602
   vertex  3.02268 -47.9379  11.0266
  endloop
 endfacet
 facet normal 0.513512 -0.056077 0.856248
  outer loop
   vertex        6      -30  6.83698
   vertex  3.20566      -30  8.51281
   vertex  3.65167 -39.0506  7.65259
  endloop
 endfacet
 facet normal -0.37782 -0.0146019 0.925764
  outer loop
   vertex       -6 -38.8856   6.6968
   vertex -3.65167 -39.0506  7.65259
   vertex       -6 -37.1085  6.72483
  endloop
 endfacet
 facet normal  0.37782 -0.0146022 0.925764
  outer loop
   vertex  3.65167 -39.0506  7.65259
   vertex        6 -40.6627  6.66877
   vertex        6 -38.8856   6.6968
  endloop
 endfacet
 facet normal 0.242377 0.661395 0.709796
  outer loop
   vertex  2.39369 -55.1131  17.9273
   vertex  3.02268 -47.9379  11.0266
   vertex -2.82264e-29 -47.4036  11.5609
  endloop
 endfacet
 facet normal 0.219926 0.324059 0.920119
  outer loop
   vertex -2.82264e-29 -47.4036  11.5609
   vertex  3.02268 -47.9379  11.0266
   vertex 4.44089e-16 -38.7013  8.49602
  endloop
 endfacet
 facet normal 0.845087 0.171437 0.506397
  outer loop
   vertex        6 -44.2169  6.61269
   vertex  5.13855 -49.2203  9.74416
   vertex        6 -51.0447  8.92419
  endloop
 endfacet
 facet normal 0.627952 0.332326  0.70373
  outer loop
   vertex  3.02268 -47.9379  11.0266
   vertex  5.13855 -49.2203  9.74416
   vertex        6 -44.2169  6.61269
  endloop
 endfacet
 facet normal  0.72701 0.198132 0.657419
  outer loop
   vertex  3.02268 -47.9379  11.0266
   vertex        6 -44.2169  6.61269
   vertex  3.65167 -39.0506  7.65259
  endloop
 endfacet
 facet normal 0.650133 0.504469 0.568188
  outer loop
   vertex  4.06928   -56.44  17.3777
   vertex  5.13855 -49.2203  9.74416
   vertex  3.02268 -47.9379  11.0266
  endloop
 endfacet
 facet normal 0.216861 -0.0817709 0.972772
  outer loop
   vertex  3.20566      -30  8.51281
   vertex 4.44089e-16 -38.7013  8.49602
   vertex  3.65167 -39.0506  7.65259
  endloop
 endfacet
 facet normal -0.242329 0.657488 0.713433
  outer loop
   vertex 8.88178e-16 -54.5603  18.1564
   vertex -2.82264e-29 -47.4036  11.5609
   vertex -3.02268 -47.9379  11.0266
  endloop
 endfacet
 facet normal -0.993293 -0.0615028 0.097909
  outer loop
   vertex       -6 -54.5233  9.68427
   vertex -6.00367 -54.6233  9.58422
   vertex    -3.75    -62.5     27.5
  endloop
 endfacet
 facet normal -0.893737 0.256646 0.367922
  outer loop
   vertex       -6 -51.0447  8.92419
   vertex -4.06928   -56.44  17.3777
   vertex -5.13855 -49.2203  9.74416
  endloop
 endfacet
 facet normal -0.612145 0.529905 0.586923
  outer loop
   vertex -4.06928   -56.44  17.3777
   vertex -2.39369 -55.1131  17.9273
   vertex -5.13855 -49.2203  9.74416
  endloop
 endfacet
 facet normal -0.650394  0.68767 0.322642
  outer loop
   vertex -2.65165 -59.8484     27.5
   vertex -2.39369 -55.1131  17.9273
   vertex -4.06928   -56.44  17.3777
  endloop
 endfacet
 facet normal -0.965023 0.055963 0.256122
  outer loop
   vertex       -6 -54.5233  9.68427
   vertex -4.06928   -56.44  17.3777
   vertex       -6 -51.0447  8.92419
  endloop
 endfacet
 facet normal -0.800652 0.502583  0.32614
  outer loop
   vertex -4.06928   -56.44  17.3777
   vertex       -6 -54.5233  9.68427
   vertex    -3.75    -62.5     27.5
  endloop
 endfacet
 facet normal -0.970256  0.19299 0.146143
  outer loop
   vertex -3.46455 -61.0649     27.5
   vertex -4.06928   -56.44  17.3777
   vertex    -3.75    -62.5     27.5
  endloop
 endfacet
 facet normal -0.516532  0.77295 0.368434
  outer loop
   vertex -2.65165 -59.8484     27.5
   vertex -1.43506 -59.0354     27.5
   vertex -2.39369 -55.1131  17.9273
  endloop
 endfacet
 facet normal -0.178552 0.897803 0.402578
  outer loop
   vertex 8.88178e-16 -54.5603  18.1564
   vertex -1.43506 -59.0354     27.5
   vertex 6.88864e-16   -58.75     27.5
  endloop
 endfacet
 facet normal -0.795608 0.531649 0.290443
  outer loop
   vertex -3.46455 -61.0649     27.5
   vertex -2.65165 -59.8484     27.5
   vertex -4.06928   -56.44  17.3777
  endloop
 endfacet
 facet normal -0.242483 0.888961 0.388524
  outer loop
   vertex 8.88178e-16 -54.5603  18.1564
   vertex -2.39369 -55.1131  17.9273
   vertex -1.43506 -59.0354     27.5
  endloop
 endfacet
 facet normal -0.991808 -0.0983429 0.0815253
  outer loop
   vertex       -6 -54.8408   9.3665
   vertex    -3.75    -62.5     27.5
   vertex -6.00367 -54.6233  9.58422
  endloop
 endfacet
 facet normal 0.242483 0.888961 0.388524
  outer loop
   vertex  1.43506 -59.0354     27.5
   vertex  2.39369 -55.1131  17.9273
   vertex 8.88178e-16 -54.5603  18.1564
  endloop
 endfacet
 facet normal 0.221262  0.66089 0.717124
  outer loop
   vertex  2.39369 -55.1131  17.9273
   vertex -2.82264e-29 -47.4036  11.5609
   vertex 8.88178e-16 -54.5603  18.1564
  endloop
 endfacet
 facet normal 0.893737 0.256646 0.367922
  outer loop
   vertex  5.13855 -49.2203  9.74416
   vertex  4.06928   -56.44  17.3777
   vertex        6 -51.0447  8.92419
  endloop
 endfacet
 facet normal  0.98581 0.0358334 0.163996
  outer loop
   vertex        6 -51.0447  8.92419
   vertex   5.0866 -59.2597  16.2098
   vertex        6 -54.5233  9.68427
  endloop
 endfacet
 facet normal 0.608979 0.521445 0.597695
  outer loop
   vertex  2.39369 -55.1131  17.9273
   vertex  4.06928   -56.44  17.3777
   vertex  3.02268 -47.9379  11.0266
  endloop
 endfacet
 facet normal -0.221929 0.665723 0.712433
  outer loop
   vertex -2.39369 -55.1131  17.9273
   vertex 8.88178e-16 -54.5603  18.1564
   vertex -3.02268 -47.9379  11.0266
  endloop
 endfacet
 facet normal 0.922169  0.19415 0.334529
  outer loop
   vertex        6 -51.0447  8.92419
   vertex  4.06928   -56.44  17.3777
   vertex   5.0866 -59.2597  16.2098
  endloop
 endfacet
 facet normal 0.516532  0.77295 0.368434
  outer loop
   vertex  2.65165 -59.8484     27.5
   vertex  2.39369 -55.1131  17.9273
   vertex  1.43506 -59.0354     27.5
  endloop
 endfacet
 facet normal 0.966577 0.192258 0.169607
  outer loop
   vertex     3.75    -62.5     27.5
   vertex   5.0866 -59.2597  16.2098
   vertex  3.46455 -61.0649     27.5
  endloop
 endfacet
 facet normal 0.946811  0.26754 0.178804
  outer loop
   vertex  3.46455 -61.0649     27.5
   vertex   5.0866 -59.2597  16.2098
   vertex  4.06928   -56.44  17.3777
  endloop
 endfacet
 facet normal -0.377817 -0.0146072 0.925765
  outer loop
   vertex       -6 -40.6627  6.66877
   vertex       -6 -44.2169  6.61269
   vertex -3.65167 -39.0506  7.65259
  endloop
 endfacet
 facet normal 0.795608 0.531649 0.290443
  outer loop
   vertex  2.65165 -59.8484     27.5
   vertex  3.46455 -61.0649     27.5
   vertex  4.06928   -56.44  17.3777
  endloop
 endfacet
 facet normal 0.650394  0.68767 0.322642
  outer loop
   vertex  2.65165 -59.8484     27.5
   vertex  4.06928   -56.44  17.3777
   vertex  2.39369 -55.1131  17.9273
  endloop
 endfacet
 facet normal 0.178552 0.897803 0.402578
  outer loop
   vertex 6.88864e-16   -58.75     27.5
   vertex  1.43506 -59.0354     27.5
   vertex 8.88178e-16 -54.5603  18.1564
  endloop
 endfacet
 facet normal -0.377822 -0.0146056 0.925763
  outer loop
   vertex       -6 -37.1085  6.72483
   vertex -3.65167 -39.0506  7.65259
   vertex       -6      -30  6.83698
  endloop
 endfacet
 facet normal  0.50483 -0.191229 -0.841771
  outer loop
   vertex  3.20566      -30 -8.51281
   vertex        6      -30 -6.83698
   vertex  3.65167  -44.291 -4.99878
  endloop
 endfacet
 facet normal 0.647393 -0.461924 -0.606224
  outer loop
   vertex  3.02268  -55.953  3.01149
   vertex        6 -43.7068 -3.14023
   vertex  5.13855 -54.6706   4.2939
  endloop
 endfacet
 facet normal 0.909936 -0.279358 -0.306553
  outer loop
   vertex        6 -43.7068 -3.14023
   vertex        6 -48.9214  1.61176
   vertex  5.13855 -54.6706   4.2939
  endloop
 endfacet
 facet normal 0.237038 -0.55831 -0.795049
  outer loop
   vertex  3.65167  -44.291 -4.99878
   vertex 2.82264e-29 -56.4873  2.47715
   vertex 8.88178e-16 -44.6403 -5.84221
  endloop
 endfacet
 facet normal 0.239648 -0.224761 -0.944485
  outer loop
   vertex  3.20566      -30 -8.51281
   vertex  3.65167  -44.291 -4.99878
   vertex 8.88178e-16 -44.6403 -5.84221
  endloop
 endfacet
 facet normal 0.239134 -0.558479 -0.794302
  outer loop
   vertex  3.02268  -55.953  3.01149
   vertex 2.82264e-29 -56.4873  2.47715
   vertex  3.65167  -44.291 -4.99878
  endloop
 endfacet
 facet normal 0.617114 -0.467853 -0.63268
  outer loop
   vertex        6 -43.7068 -3.14023
   vertex  3.02268  -55.953  3.01149
   vertex  3.65167  -44.291 -4.99878
  endloop
 endfacet
 facet normal 0.638173 -0.200478 -0.743333
  outer loop
   vertex  3.65167  -44.291 -4.99878
   vertex        6      -30 -6.83698
   vertex        6 -43.7068 -3.14023
  endloop
 endfacet
 facet normal 0.639106 -0.660621 -0.393857
  outer loop
   vertex  3.02268  -55.953  3.01149
   vertex  5.13855 -54.6706   4.2939
   vertex  2.39369 -63.4062  14.4922
  endloop
 endfacet
 facet normal 0.174968 -0.213633 -0.961118
  outer loop
   vertex 8.88178e-16 -44.6403 -5.84221
   vertex -4.5966e-15      -30 -9.09639
   vertex  3.20566      -30 -8.51281
  endloop
 endfacet
 facet normal -0.239648 -0.224761 -0.944485
  outer loop
   vertex 8.88178e-16 -44.6403 -5.84221
   vertex -3.65167  -44.291 -4.99878
   vertex -3.20566      -30 -8.51281
  endloop
 endfacet
 facet normal  0.37782 -0.0146019 0.925764
  outer loop
   vertex        6 -38.8856   6.6968
   vertex        6 -37.1085  6.72483
   vertex  3.65167 -39.0506  7.65259
  endloop
 endfacet
 facet normal -0.638173 -0.200478 -0.743333
  outer loop
   vertex       -6      -30 -6.83698
   vertex -3.65167  -44.291 -4.99878
   vertex       -6 -43.7068 -3.14023
  endloop
 endfacet
 facet normal -0.50483 -0.191229 -0.841771
  outer loop
   vertex -3.20566      -30 -8.51281
   vertex -3.65167  -44.291 -4.99878
   vertex       -6      -30 -6.83698
  endloop
 endfacet
 facet normal 0.377817 -0.0146072 0.925765
  outer loop
   vertex        6 -40.6627  6.66877
   vertex  3.65167 -39.0506  7.65259
   vertex        6 -44.2169  6.61269
  endloop
 endfacet
 facet normal -0.237014 -0.558697 -0.794785
  outer loop
   vertex -3.65167  -44.291 -4.99878
   vertex 8.88178e-16 -44.6403 -5.84221
   vertex -3.02268  -55.953  3.01149
  endloop
 endfacet
 facet normal -0.236973 -0.82074 -0.519836
  outer loop
   vertex -3.02268  -55.953  3.01149
   vertex 2.82264e-29 -56.4873  2.47715
   vertex -2.39369 -63.4062  14.4922
  endloop
 endfacet
 facet normal -0.23911 -0.558018 -0.794633
  outer loop
   vertex 2.82264e-29 -56.4873  2.47715
   vertex -3.02268  -55.953  3.01149
   vertex 8.88178e-16 -44.6403 -5.84221
  endloop
 endfacet
 facet normal -0.909936 -0.279358 -0.306553
  outer loop
   vertex -5.13855 -54.6706   4.2939
   vertex       -6 -48.9214  1.61176
   vertex       -6 -43.7068 -3.14023
  endloop
 endfacet
 facet normal -0.638897 -0.661627 -0.392505
  outer loop
   vertex -4.06928 -62.0793  15.0419
   vertex -5.13855 -54.6706   4.2939
   vertex -3.02268  -55.953  3.01149
  endloop
 endfacet
 facet normal -0.647393 -0.461924 -0.606224
  outer loop
   vertex -3.02268  -55.953  3.01149
   vertex -5.13855 -54.6706   4.2939
   vertex       -6 -43.7068 -3.14023
  endloop
 endfacet
 facet normal -0.617114 -0.467853 -0.63268
  outer loop
   vertex -3.02268  -55.953  3.01149
   vertex       -6 -43.7068 -3.14023
   vertex -3.65167  -44.291 -4.99878
  endloop
 endfacet
 facet normal 0.236993 -0.820521 -0.520172
  outer loop
   vertex 4.44089e-16 -63.9591  14.2632
   vertex 2.82264e-29 -56.4873  2.47715
   vertex  3.02268  -55.953  3.01149
  endloop
 endfacet
 facet normal -0.174968 -0.213633 -0.961118
  outer loop
   vertex -3.20566      -30 -8.51281
   vertex -4.5966e-15      -30 -9.09639
   vertex 8.88178e-16 -44.6403 -5.84221
  endloop
 endfacet
 facet normal -0.853696 -0.464578 -0.235308
  outer loop
   vertex       -6  -54.136  6.36376
   vertex -5.13855 -54.6706   4.2939
   vertex -4.06928 -62.0793  15.0419
  endloop
 endfacet
 facet normal 0.988184 -0.149069 0.0356385
  outer loop
   vertex        6 -54.9464   8.9248
   vertex        6 -54.8408   9.3665
   vertex   5.0866 -59.2597  16.2098
  endloop
 endfacet
 facet normal 0.993485 -0.0806163 0.080548
  outer loop
   vertex        6 -54.5233  9.68427
   vertex   5.0866 -59.2597  16.2098
   vertex        6 -54.8408   9.3665
  endloop
 endfacet
 facet normal 0.946939 -0.314811 -0.064815
  outer loop
   vertex  4.06928 -62.0793  15.0419
   vertex        6 -54.8277   8.0279
   vertex   5.0866 -59.2597  16.2098
  endloop
 endfacet
 facet normal  0.96418 -0.262954 -0.0348001
  outer loop
   vertex   5.0866 -59.2597  16.2098
   vertex        6 -54.8277   8.0279
   vertex        6 -54.9464   8.9248
  endloop
 endfacet
 facet normal 0.900754 -0.401064 -0.166702
  outer loop
   vertex        6  -54.136  6.36376
   vertex        6 -54.8277   8.0279
   vertex  4.06928 -62.0793  15.0419
  endloop
 endfacet
 facet normal 0.830705 -0.555099 -0.0423661
  outer loop
   vertex  2.65165 -65.1516     27.5
   vertex  4.06928 -62.0793  15.0419
   vertex  3.46455 -63.9351     27.5
  endloop
 endfacet
 facet normal 0.941245 -0.337693 -0.00461473
  outer loop
   vertex   5.0866 -59.2597  16.2098
   vertex  3.46455 -63.9351     27.5
   vertex  4.06928 -62.0793  15.0419
  endloop
 endfacet
 facet normal 0.551441 -0.825293 -0.121675
  outer loop
   vertex  1.43506 -65.9645     27.5
   vertex  2.39369 -63.4062  14.4922
   vertex  2.65165 -65.1516     27.5
  endloop
 endfacet
 facet normal  0.63957 -0.760131 -0.114679
  outer loop
   vertex  4.06928 -62.0793  15.0419
   vertex  2.65165 -65.1516     27.5
   vertex  2.39369 -63.4062  14.4922
  endloop
 endfacet
 facet normal 0.237223 -0.956357 -0.170608
  outer loop
   vertex 4.44089e-16 -63.9591  14.2632
   vertex  2.39369 -63.4062  14.4922
   vertex  1.43506 -65.9645     27.5
  endloop
 endfacet
 facet normal 0.853696 -0.464578 -0.235308
  outer loop
   vertex  4.06928 -62.0793  15.0419
   vertex  5.13855 -54.6706   4.2939
   vertex        6  -54.136  6.36376
  endloop
 endfacet
 facet normal 0.647044 -0.656323 -0.388038
  outer loop
   vertex  5.13855 -54.6706   4.2939
   vertex  4.06928 -62.0793  15.0419
   vertex  2.39369 -63.4062  14.4922
  endloop
 endfacet
 facet normal 0.979019 -0.194733 0.0600135
  outer loop
   vertex     3.75    -62.5     27.5
   vertex  3.46455 -63.9351     27.5
   vertex   5.0866 -59.2597  16.2098
  endloop
 endfacet
 facet normal -0.237223 -0.956357 -0.170608
  outer loop
   vertex -1.43506 -65.9645     27.5
   vertex -2.39369 -63.4062  14.4922
   vertex 4.44089e-16 -63.9591  14.2632
  endloop
 endfacet
 facet normal -0.239159 -0.820073 -0.519888
  outer loop
   vertex -2.39369 -63.4062  14.4922
   vertex 2.82264e-29 -56.4873  2.47715
   vertex 4.44089e-16 -63.9591  14.2632
  endloop
 endfacet
 facet normal -0.955698 -0.291805 -0.0386182
  outer loop
   vertex       -6 -54.9464   8.9248
   vertex       -6 -54.8277   8.0279
   vertex -4.06928 -62.0793  15.0419
  endloop
 endfacet
 facet normal -0.646889 -0.65532 -0.389988
  outer loop
   vertex -2.39369 -63.4062  14.4922
   vertex -4.06928 -62.0793  15.0419
   vertex -3.02268  -55.953  3.01149
  endloop
 endfacet
 facet normal 0.239179 -0.820341 -0.519456
  outer loop
   vertex  2.39369 -63.4062  14.4922
   vertex 4.44089e-16 -63.9591  14.2632
   vertex  3.02268  -55.953  3.01149
  endloop
 endfacet
 facet normal -0.980023 -0.194932 0.0394403
  outer loop
   vertex       -6 -54.9464   8.9248
   vertex -3.46455 -63.9351     27.5
   vertex    -3.75    -62.5     27.5
  endloop
 endfacet
 facet normal -0.19237 -0.966948 -0.16735
  outer loop
   vertex -1.43506 -65.9645     27.5
   vertex 4.44089e-16 -63.9591  14.2632
   vertex -2.29621e-16   -66.25     27.5
  endloop
 endfacet
 facet normal -0.830705 -0.555099 -0.0423661
  outer loop
   vertex -3.46455 -63.9351     27.5
   vertex -4.06928 -62.0793  15.0419
   vertex -2.65165 -65.1516     27.5
  endloop
 endfacet
 facet normal -0.551441 -0.825293 -0.121675
  outer loop
   vertex -2.39369 -63.4062  14.4922
   vertex -1.43506 -65.9645     27.5
   vertex -2.65165 -65.1516     27.5
  endloop
 endfacet
 facet normal -0.967168 -0.253975 0.00911449
  outer loop
   vertex       -6 -54.9464   8.9248
   vertex -4.06928 -62.0793  15.0419
   vertex -3.46455 -63.9351     27.5
  endloop
 endfacet
 facet normal -0.63957 -0.760131 -0.114679
  outer loop
   vertex -2.39369 -63.4062  14.4922
   vertex -2.65165 -65.1516     27.5
   vertex -4.06928 -62.0793  15.0419
  endloop
 endfacet
 facet normal -0.981903 -0.184192 0.0440354
  outer loop
   vertex    -3.75    -62.5     27.5
   vertex       -6 -54.8408   9.3665
   vertex       -6 -54.9464   8.9248
  endloop
 endfacet
 facet normal  0.19237 -0.966948 -0.16735
  outer loop
   vertex  1.43506 -65.9645     27.5
   vertex -2.29621e-16   -66.25     27.5
   vertex 4.44089e-16 -63.9591  14.2632
  endloop
 endfacet
 facet normal -0.900754 -0.401064 -0.166702
  outer loop
   vertex       -6 -54.8277   8.0279
   vertex       -6  -54.136  6.36376
   vertex -4.06928 -62.0793  15.0419
  endloop
 endfacet
 facet normal 0.377822 -0.0146056 0.925763
  outer loop
   vertex        6 -37.1085  6.72483
   vertex        6      -30  6.83698
   vertex  3.65167 -39.0506  7.65259
  endloop
 endfacet
 facet normal 0.909937 -0.279357 -0.306553
  outer loop
   vertex        6 -48.9214  1.61176
   vertex        6  -54.136  6.36376
   vertex  5.13855 -54.6706   4.2939
  endloop
 endfacet
 facet normal 0.109889 0.552139 0.826479
  outer loop
   vertex        0 -61.0649  30.9645
   vertex 0.549175 -61.1742  30.9645
   vertex  1.01474 -60.0502  30.1517
  endloop
 endfacet
 facet normal 0.0388036  0.19497 0.980041
  outer loop
   vertex 0.549175 -61.1742  30.9645
   vertex        0 -61.0649  30.9645
   vertex 2.81205e-32    -62.5    31.25
  endloop
 endfacet
 facet normal 0.468093  0.31282 0.826458
  outer loop
   vertex  1.01474 -61.4853  30.9645
   vertex  1.32583 -61.9508  30.9645
   vertex  2.44981 -61.4853  30.1517
  endloop
 endfacet
 facet normal 0.165284 0.110457 0.980041
  outer loop
   vertex  1.32583 -61.9508  30.9645
   vertex  1.01474 -61.4853  30.9645
   vertex 2.81205e-32    -62.5    31.25
  endloop
 endfacet
 facet normal 0.110451 0.165292  0.98004
  outer loop
   vertex 0.549175 -61.1742  30.9645
   vertex 2.81205e-32    -62.5    31.25
   vertex  1.01474 -61.4853  30.9645
  endloop
 endfacet
 facet normal 0.312782 0.468082 0.826479
  outer loop
   vertex 0.549175 -61.1742  30.9645
   vertex  1.01474 -61.4853  30.9645
   vertex    1.875  -60.625  30.1517
  endloop
 endfacet
 facet normal 0.163141 0.820341 0.548111
  outer loop
   vertex        0 -59.8484  30.1517
   vertex  1.01474 -60.0502  30.1517
   vertex  1.32583 -59.2992  28.9351
  endloop
 endfacet
 facet normal 0.109815 0.552193 0.826453
  outer loop
   vertex  1.01474 -60.0502  30.1517
   vertex        0 -59.8484  30.1517
   vertex        0 -61.0649  30.9645
  endloop
 endfacet
 facet normal 0.695446 0.464664 0.548127
  outer loop
   vertex    1.875  -60.625  30.1517
   vertex  2.44981 -61.4853  30.1517
   vertex  3.20083 -61.1742  28.9351
  endloop
 endfacet
 facet normal 0.468102 0.312763 0.826474
  outer loop
   vertex  2.44981 -61.4853  30.1517
   vertex    1.875  -60.625  30.1517
   vertex  1.01474 -61.4853  30.9645
  endloop
 endfacet
 facet normal  0.31277   0.4681 0.826473
  outer loop
   vertex  1.01474 -60.0502  30.1517
   vertex 0.549175 -61.1742  30.9645
   vertex    1.875  -60.625  30.1517
  endloop
 endfacet
 facet normal 0.464674 0.695445 0.548119
  outer loop
   vertex  1.01474 -60.0502  30.1517
   vertex    1.875  -60.625  30.1517
   vertex  2.44981 -60.0502  28.9351
  endloop
 endfacet
 facet normal 0.552164  0.10982 0.826471
  outer loop
   vertex  1.43506    -62.5  30.9645
   vertex  2.65165    -62.5  30.1517
   vertex  1.32583 -61.9508  30.9645
  endloop
 endfacet
 facet normal -0.109815 0.552193 0.826453
  outer loop
   vertex        0 -61.0649  30.9645
   vertex        0 -59.8484  30.1517
   vertex -1.01474 -60.0502  30.1517
  endloop
 endfacet
 facet normal 0.552172 -0.109821 0.826466
  outer loop
   vertex  1.43506    -62.5  30.9645
   vertex  1.32583 -63.0492  30.9645
   vertex  2.44981 -63.5147  30.1517
  endloop
 endfacet
 facet normal 0.194975 -0.0387787 0.980041
  outer loop
   vertex  1.32583 -63.0492  30.9645
   vertex  1.43506    -62.5  30.9645
   vertex 2.81205e-32    -62.5    31.25
  endloop
 endfacet
 facet normal 0.312788 -0.468091 0.826471
  outer loop
   vertex  1.01474 -63.5147  30.9645
   vertex 0.549175 -63.8258  30.9645
   vertex  1.01474 -64.9498  30.1517
  endloop
 endfacet
 facet normal 0.110451 -0.165292  0.98004
  outer loop
   vertex 0.549175 -63.8258  30.9645
   vertex  1.01474 -63.5147  30.9645
   vertex 2.81205e-32    -62.5    31.25
  endloop
 endfacet
 facet normal 0.165284 -0.110457 0.980041
  outer loop
   vertex  1.32583 -63.0492  30.9645
   vertex 2.81205e-32    -62.5    31.25
   vertex  1.01474 -63.5147  30.9645
  endloop
 endfacet
 facet normal 0.468067 -0.312803 0.826479
  outer loop
   vertex  1.32583 -63.0492  30.9645
   vertex  1.01474 -63.5147  30.9645
   vertex    1.875  -64.375  30.1517
  endloop
 endfacet
 facet normal 0.820326 -0.163176 0.548123
  outer loop
   vertex  2.65165    -62.5  30.1517
   vertex  2.44981 -63.5147  30.1517
   vertex  3.20083 -63.8258  28.9351
  endloop
 endfacet
 facet normal 0.552163 -0.109834  0.82647
  outer loop
   vertex  2.44981 -63.5147  30.1517
   vertex  2.65165    -62.5  30.1517
   vertex  1.43506    -62.5  30.9645
  endloop
 endfacet
 facet normal 0.464676 -0.695447 0.548115
  outer loop
   vertex    1.875  -64.375  30.1517
   vertex  1.01474 -64.9498  30.1517
   vertex  1.32583 -65.7008  28.9351
  endloop
 endfacet
 facet normal 0.312766 -0.468095 0.826477
  outer loop
   vertex  1.01474 -64.9498  30.1517
   vertex    1.875  -64.375  30.1517
   vertex  1.01474 -63.5147  30.9645
  endloop
 endfacet
 facet normal 0.468116 -0.312773 0.826463
  outer loop
   vertex  2.44981 -63.5147  30.1517
   vertex  1.32583 -63.0492  30.9645
   vertex    1.875  -64.375  30.1517
  endloop
 endfacet
 facet normal  0.69545 -0.464666 0.548119
  outer loop
   vertex  2.44981 -63.5147  30.1517
   vertex    1.875  -64.375  30.1517
   vertex  2.44981 -64.9498  28.9351
  endloop
 endfacet
 facet normal 0.163143 -0.820333 0.548123
  outer loop
   vertex  1.01474 -64.9498  30.1517
   vertex 3.24734e-16 -65.1516  30.1517
   vertex 4.24285e-16 -65.9645  28.9351
  endloop
 endfacet
 facet normal 0.552167 0.109835 0.826467
  outer loop
   vertex  2.65165    -62.5  30.1517
   vertex  2.44981 -61.4853  30.1517
   vertex  1.32583 -61.9508  30.9645
  endloop
 endfacet
 facet normal 0.194975 0.0387787 0.980041
  outer loop
   vertex  1.32583 -61.9508  30.9645
   vertex 2.81205e-32    -62.5    31.25
   vertex  1.43506    -62.5  30.9645
  endloop
 endfacet
 facet normal 0.820327 0.163176 0.548122
  outer loop
   vertex  2.44981 -61.4853  30.1517
   vertex  2.65165    -62.5  30.1517
   vertex  3.46455    -62.5  28.9351
  endloop
 endfacet
 facet normal 0.191534 0.962635  0.19144
  outer loop
   vertex        0 -59.0354  28.9351
   vertex  1.32583 -59.2992  28.9351
   vertex -9.18485e-16   -58.75     27.5
  endloop
 endfacet
 facet normal 0.163212 0.820291 0.548165
  outer loop
   vertex  1.32583 -59.2992  28.9351
   vertex        0 -59.0354  28.9351
   vertex        0 -59.8484  30.1517
  endloop
 endfacet
 facet normal 0.816092 0.545287 0.191457
  outer loop
   vertex  2.44981 -60.0502  28.9351
   vertex  3.20083 -61.1742  28.9351
   vertex  2.65165 -59.8484     27.5
  endloop
 endfacet
 facet normal 0.695444 0.464674  0.54812
  outer loop
   vertex  3.20083 -61.1742  28.9351
   vertex  2.44981 -60.0502  28.9351
   vertex    1.875  -60.625  30.1517
  endloop
 endfacet
 facet normal 0.464673 0.695447 0.548117
  outer loop
   vertex  1.32583 -59.2992  28.9351
   vertex  1.01474 -60.0502  30.1517
   vertex  2.44981 -60.0502  28.9351
  endloop
 endfacet
 facet normal 0.545278 0.816084 0.191514
  outer loop
   vertex  1.32583 -59.2992  28.9351
   vertex  2.44981 -60.0502  28.9351
   vertex  1.43506 -59.0354     27.5
  endloop
 endfacet
 facet normal 0.191446 0.962636 0.191522
  outer loop
   vertex  1.43506 -59.0354     27.5
   vertex -9.18485e-16   -58.75     27.5
   vertex  1.32583 -59.2992  28.9351
  endloop
 endfacet
 facet normal 0.816063 0.545317 0.191495
  outer loop
   vertex  3.46455 -61.0649     27.5
   vertex  2.65165 -59.8484     27.5
   vertex  3.20083 -61.1742  28.9351
  endloop
 endfacet
 facet normal  0.54534 0.816058 0.191452
  outer loop
   vertex  1.43506 -59.0354     27.5
   vertex  2.44981 -60.0502  28.9351
   vertex  2.65165 -59.8484     27.5
  endloop
 endfacet
 facet normal 0.962637 0.191482 0.191482
  outer loop
   vertex  3.20083 -61.1742  28.9351
   vertex  3.46455    -62.5  28.9351
   vertex  3.46455 -61.0649     27.5
  endloop
 endfacet
 facet normal -0.191449 0.962651 0.191444
  outer loop
   vertex        0 -59.0354  28.9351
   vertex -9.18485e-16   -58.75     27.5
   vertex -1.43506 -59.0354     27.5
  endloop
 endfacet
 facet normal 0.962637 -0.191482 0.191482
  outer loop
   vertex  3.46455    -62.5  28.9351
   vertex  3.20083 -63.8258  28.9351
   vertex  3.46455 -63.9351     27.5
  endloop
 endfacet
 facet normal 0.820327 -0.163174 0.548122
  outer loop
   vertex  3.20083 -63.8258  28.9351
   vertex  3.46455    -62.5  28.9351
   vertex  2.65165    -62.5  30.1517
  endloop
 endfacet
 facet normal 0.545282 -0.816094 0.191462
  outer loop
   vertex  2.44981 -64.9498  28.9351
   vertex  1.32583 -65.7008  28.9351
   vertex  1.43506 -65.9645     27.5
  endloop
 endfacet
 facet normal 0.464671 -0.695448 0.548118
  outer loop
   vertex  1.32583 -65.7008  28.9351
   vertex  2.44981 -64.9498  28.9351
   vertex    1.875  -64.375  30.1517
  endloop
 endfacet
 facet normal 0.695441 -0.464672 0.548126
  outer loop
   vertex  3.20083 -63.8258  28.9351
   vertex  2.44981 -63.5147  30.1517
   vertex  2.44981 -64.9498  28.9351
  endloop
 endfacet
 facet normal 0.816092 -0.545287 0.191458
  outer loop
   vertex  3.20083 -63.8258  28.9351
   vertex  2.44981 -64.9498  28.9351
   vertex  2.65165 -65.1516     27.5
  endloop
 endfacet
 facet normal  0.96264 -0.191475 0.191475
  outer loop
   vertex  3.46455 -63.9351     27.5
   vertex     3.75    -62.5     27.5
   vertex  3.46455    -62.5  28.9351
  endloop
 endfacet
 facet normal 0.545292 -0.81609 0.191452
  outer loop
   vertex  1.43506 -65.9645     27.5
   vertex  2.65165 -65.1516     27.5
   vertex  2.44981 -64.9498  28.9351
  endloop
 endfacet
 facet normal 0.816064 -0.545316 0.191495
  outer loop
   vertex  3.46455 -63.9351     27.5
   vertex  3.20083 -63.8258  28.9351
   vertex  2.65165 -65.1516     27.5
  endloop
 endfacet
 facet normal 0.191466 -0.962644 0.191461
  outer loop
   vertex  1.43506 -65.9645     27.5
   vertex  1.32583 -65.7008  28.9351
   vertex 4.24285e-16 -65.9645  28.9351
  endloop
 endfacet
 facet normal  0.96264 0.191475 0.191475
  outer loop
   vertex  3.46455    -62.5  28.9351
   vertex     3.75    -62.5     27.5
   vertex  3.46455 -61.0649     27.5
  endloop
 endfacet
 facet normal 0.820327 0.163174 0.548123
  outer loop
   vertex  3.20083 -61.1742  28.9351
   vertex  2.44981 -61.4853  30.1517
   vertex  3.46455    -62.5  28.9351
  endloop
 endfacet
 facet normal 0.109898 -0.552186 0.826446
  outer loop
   vertex 0.549175 -63.8258  30.9645
   vertex 1.75745e-16 -63.9351  30.9645
   vertex 3.24734e-16 -65.1516  30.1517
  endloop
 endfacet
 facet normal -0.163212 0.820291 0.548165
  outer loop
   vertex        0 -59.8484  30.1517
   vertex        0 -59.0354  28.9351
   vertex -1.32583 -59.2992  28.9351
  endloop
 endfacet
 facet normal 0.0388036 -0.19497 0.980041
  outer loop
   vertex 2.81205e-32    -62.5    31.25
   vertex 1.75745e-16 -63.9351  30.9645
   vertex 0.549175 -63.8258  30.9645
  endloop
 endfacet
 facet normal -0.0388036 -0.19497 0.980041
  outer loop
   vertex 1.75745e-16 -63.9351  30.9645
   vertex 2.81205e-32    -62.5    31.25
   vertex -0.549175 -63.8258  30.9645
  endloop
 endfacet
 facet normal -0.312782 -0.468082 0.826479
  outer loop
   vertex -0.549175 -63.8258  30.9645
   vertex -1.01474 -63.5147  30.9645
   vertex   -1.875  -64.375  30.1517
  endloop
 endfacet
 facet normal -0.110451 -0.165292  0.98004
  outer loop
   vertex -1.01474 -63.5147  30.9645
   vertex -0.549175 -63.8258  30.9645
   vertex 2.81205e-32    -62.5    31.25
  endloop
 endfacet
 facet normal -0.165284 -0.110457 0.980041
  outer loop
   vertex 2.81205e-32    -62.5    31.25
   vertex -1.32583 -63.0492  30.9645
   vertex -1.01474 -63.5147  30.9645
  endloop
 endfacet
 facet normal -0.109889 -0.552139 0.826479
  outer loop
   vertex 1.75745e-16 -63.9351  30.9645
   vertex -0.549175 -63.8258  30.9645
   vertex -1.01474 -64.9498  30.1517
  endloop
 endfacet
 facet normal -0.163144 -0.820342 0.548109
  outer loop
   vertex 3.24734e-16 -65.1516  30.1517
   vertex -1.01474 -64.9498  30.1517
   vertex -1.32583 -65.7008  28.9351
  endloop
 endfacet
 facet normal -0.109816 -0.552191 0.826453
  outer loop
   vertex 3.24734e-16 -65.1516  30.1517
   vertex 1.75745e-16 -63.9351  30.9645
   vertex -1.01474 -64.9498  30.1517
  endloop
 endfacet
 facet normal -0.468102 -0.312763 0.826474
  outer loop
   vertex -1.01474 -63.5147  30.9645
   vertex -2.44981 -63.5147  30.1517
   vertex   -1.875  -64.375  30.1517
  endloop
 endfacet
 facet normal -0.31277  -0.4681 0.826473
  outer loop
   vertex   -1.875  -64.375  30.1517
   vertex -1.01474 -64.9498  30.1517
   vertex -0.549175 -63.8258  30.9645
  endloop
 endfacet
 facet normal -0.468093 -0.31282 0.826458
  outer loop
   vertex -2.44981 -63.5147  30.1517
   vertex -1.01474 -63.5147  30.9645
   vertex -1.32583 -63.0492  30.9645
  endloop
 endfacet
 facet normal -0.464674 -0.695445 0.548119
  outer loop
   vertex -1.01474 -64.9498  30.1517
   vertex   -1.875  -64.375  30.1517
   vertex -2.44981 -64.9498  28.9351
  endloop
 endfacet
 facet normal -0.194975 -0.0387787 0.980041
  outer loop
   vertex 2.81205e-32    -62.5    31.25
   vertex -1.43506    -62.5  30.9645
   vertex -1.32583 -63.0492  30.9645
  endloop
 endfacet
 facet normal 0.109811 -0.552166 0.826471
  outer loop
   vertex 3.24734e-16 -65.1516  30.1517
   vertex  1.01474 -64.9498  30.1517
   vertex 0.549175 -63.8258  30.9645
  endloop
 endfacet
 facet normal -0.552172 0.109821 0.826466
  outer loop
   vertex -1.43506    -62.5  30.9645
   vertex -1.32583 -61.9508  30.9645
   vertex -2.44981 -61.4853  30.1517
  endloop
 endfacet
 facet normal -0.194975 0.0387787 0.980041
  outer loop
   vertex -1.32583 -61.9508  30.9645
   vertex -1.43506    -62.5  30.9645
   vertex 2.81205e-32    -62.5    31.25
  endloop
 endfacet
 facet normal -0.312788 0.468091 0.826471
  outer loop
   vertex -0.549175 -61.1742  30.9645
   vertex -1.01474 -60.0502  30.1517
   vertex -1.01474 -61.4853  30.9645
  endloop
 endfacet
 facet normal -0.110451 0.165292  0.98004
  outer loop
   vertex -0.549175 -61.1742  30.9645
   vertex -1.01474 -61.4853  30.9645
   vertex 2.81205e-32    -62.5    31.25
  endloop
 endfacet
 facet normal -0.165284 0.110457 0.980041
  outer loop
   vertex -1.32583 -61.9508  30.9645
   vertex 2.81205e-32    -62.5    31.25
   vertex -1.01474 -61.4853  30.9645
  endloop
 endfacet
 facet normal -0.468067 0.312803 0.826479
  outer loop
   vertex -1.32583 -61.9508  30.9645
   vertex -1.01474 -61.4853  30.9645
   vertex   -1.875  -60.625  30.1517
  endloop
 endfacet
 facet normal -0.820327 -0.163176 0.548122
  outer loop
   vertex -2.44981 -63.5147  30.1517
   vertex -2.65165    -62.5  30.1517
   vertex -3.46455    -62.5  28.9351
  endloop
 endfacet
 facet normal -0.552167 -0.109835 0.826467
  outer loop
   vertex -2.44981 -63.5147  30.1517
   vertex -1.32583 -63.0492  30.9645
   vertex -2.65165    -62.5  30.1517
  endloop
 endfacet
 facet normal -0.69545 0.464666 0.548119
  outer loop
   vertex -2.44981 -61.4853  30.1517
   vertex   -1.875  -60.625  30.1517
   vertex -2.44981 -60.0502  28.9351
  endloop
 endfacet
 facet normal -0.468116 0.312773 0.826463
  outer loop
   vertex   -1.875  -60.625  30.1517
   vertex -2.44981 -61.4853  30.1517
   vertex -1.32583 -61.9508  30.9645
  endloop
 endfacet
 facet normal -0.552163 0.109834  0.82647
  outer loop
   vertex -2.65165    -62.5  30.1517
   vertex -1.43506    -62.5  30.9645
   vertex -2.44981 -61.4853  30.1517
  endloop
 endfacet
 facet normal -0.820326 0.163176 0.548123
  outer loop
   vertex -2.65165    -62.5  30.1517
   vertex -2.44981 -61.4853  30.1517
   vertex -3.20083 -61.1742  28.9351
  endloop
 endfacet
 facet normal -0.312766 0.468095 0.826477
  outer loop
   vertex -1.01474 -60.0502  30.1517
   vertex   -1.875  -60.625  30.1517
   vertex -1.01474 -61.4853  30.9645
  endloop
 endfacet
 facet normal -0.552164 -0.10982 0.826471
  outer loop
   vertex -2.65165    -62.5  30.1517
   vertex -1.32583 -63.0492  30.9645
   vertex -1.43506    -62.5  30.9645
  endloop
 endfacet
 facet normal -0.0388036  0.19497 0.980041
  outer loop
   vertex 2.81205e-32    -62.5    31.25
   vertex        0 -61.0649  30.9645
   vertex -0.549175 -61.1742  30.9645
  endloop
 endfacet
 facet normal -0.695446 -0.464664 0.548127
  outer loop
   vertex   -1.875  -64.375  30.1517
   vertex -2.44981 -63.5147  30.1517
   vertex -3.20083 -63.8258  28.9351
  endloop
 endfacet
 facet normal -0.191466 -0.962644 0.191461
  outer loop
   vertex 4.24285e-16 -65.9645  28.9351
   vertex -1.32583 -65.7008  28.9351
   vertex -1.43506 -65.9645     27.5
  endloop
 endfacet
 facet normal -0.16316 -0.82033 0.548121
  outer loop
   vertex 4.24285e-16 -65.9645  28.9351
   vertex 3.24734e-16 -65.1516  30.1517
   vertex -1.32583 -65.7008  28.9351
  endloop
 endfacet
 facet normal -0.816092 -0.545287 0.191458
  outer loop
   vertex -2.44981 -64.9498  28.9351
   vertex -3.20083 -63.8258  28.9351
   vertex -2.65165 -65.1516     27.5
  endloop
 endfacet
 facet normal -0.695444 -0.464674  0.54812
  outer loop
   vertex -2.44981 -64.9498  28.9351
   vertex   -1.875  -64.375  30.1517
   vertex -3.20083 -63.8258  28.9351
  endloop
 endfacet
 facet normal -0.464672 -0.695449 0.548116
  outer loop
   vertex -1.01474 -64.9498  30.1517
   vertex -2.44981 -64.9498  28.9351
   vertex -1.32583 -65.7008  28.9351
  endloop
 endfacet
 facet normal -0.545282 -0.816094 0.191462
  outer loop
   vertex -1.32583 -65.7008  28.9351
   vertex -2.44981 -64.9498  28.9351
   vertex -1.43506 -65.9645     27.5
  endloop
 endfacet
 facet normal -0.191511 -0.962626 0.191505
  outer loop
   vertex -1.43506 -65.9645     27.5
   vertex -2.29621e-16   -66.25     27.5
   vertex 4.24285e-16 -65.9645  28.9351
  endloop
 endfacet
 facet normal -0.816064 -0.545316 0.191495
  outer loop
   vertex -3.46455 -63.9351     27.5
   vertex -2.65165 -65.1516     27.5
   vertex -3.20083 -63.8258  28.9351
  endloop
 endfacet
 facet normal -0.545292 -0.81609 0.191452
  outer loop
   vertex -1.43506 -65.9645     27.5
   vertex -2.44981 -64.9498  28.9351
   vertex -2.65165 -65.1516     27.5
  endloop
 endfacet
 facet normal -0.962637 -0.191482 0.191482
  outer loop
   vertex -3.20083 -63.8258  28.9351
   vertex -3.46455    -62.5  28.9351
   vertex -3.46455 -63.9351     27.5
  endloop
 endfacet
 facet normal 0.191511 -0.962626 0.191505
  outer loop
   vertex 4.24285e-16 -65.9645  28.9351
   vertex -2.29621e-16   -66.25     27.5
   vertex  1.43506 -65.9645     27.5
  endloop
 endfacet
 facet normal -0.962638 0.191482 0.191474
  outer loop
   vertex -3.46455    -62.5  28.9351
   vertex -3.20083 -61.1742  28.9351
   vertex    -3.75    -62.5     27.5
  endloop
 endfacet
 facet normal -0.820327 0.163174 0.548122
  outer loop
   vertex -3.46455    -62.5  28.9351
   vertex -2.65165    -62.5  30.1517
   vertex -3.20083 -61.1742  28.9351
  endloop
 endfacet
 facet normal -0.464672 0.695446 0.548118
  outer loop
   vertex   -1.875  -60.625  30.1517
   vertex -1.32583 -59.2992  28.9351
   vertex -2.44981 -60.0502  28.9351
  endloop
 endfacet
 facet normal -0.695441 0.464672 0.548126
  outer loop
   vertex -2.44981 -60.0502  28.9351
   vertex -3.20083 -61.1742  28.9351
   vertex -2.44981 -61.4853  30.1517
  endloop
 endfacet
 facet normal -0.820327 -0.163174 0.548123
  outer loop
   vertex -3.20083 -63.8258  28.9351
   vertex -2.44981 -63.5147  30.1517
   vertex -3.46455    -62.5  28.9351
  endloop
 endfacet
 facet normal -0.816085 0.545283 0.191497
  outer loop
   vertex -3.20083 -61.1742  28.9351
   vertex -2.44981 -60.0502  28.9351
   vertex -3.46455 -61.0649     27.5
  endloop
 endfacet
 facet normal -0.962638 0.191474 0.191481
  outer loop
   vertex    -3.75    -62.5     27.5
   vertex -3.20083 -61.1742  28.9351
   vertex -3.46455 -61.0649     27.5
  endloop
 endfacet
 facet normal -0.54534 0.816058 0.191452
  outer loop
   vertex -2.44981 -60.0502  28.9351
   vertex -1.43506 -59.0354     27.5
   vertex -2.65165 -59.8484     27.5
  endloop
 endfacet
 facet normal -0.816069 0.545321 0.191458
  outer loop
   vertex -2.65165 -59.8484     27.5
   vertex -3.46455 -61.0649     27.5
   vertex -2.44981 -60.0502  28.9351
  endloop
 endfacet
 facet normal -0.19153 0.962618 0.191525
  outer loop
   vertex -1.43506 -59.0354     27.5
   vertex -1.32583 -59.2992  28.9351
   vertex        0 -59.0354  28.9351
  endloop
 endfacet
 facet normal -0.545278 0.816084 0.191514
  outer loop
   vertex -1.43506 -59.0354     27.5
   vertex -2.44981 -60.0502  28.9351
   vertex -1.32583 -59.2992  28.9351
  endloop
 endfacet
 facet normal -0.163141 0.820341 0.548111
  outer loop
   vertex -1.01474 -60.0502  30.1517
   vertex        0 -59.8484  30.1517
   vertex -1.32583 -59.2992  28.9351
  endloop
 endfacet
 facet normal -0.96264 -0.191475 0.191475
  outer loop
   vertex -3.46455    -62.5  28.9351
   vertex    -3.75    -62.5     27.5
   vertex -3.46455 -63.9351     27.5
  endloop
 endfacet
 facet normal -0.464675 0.695446 0.548117
  outer loop
   vertex   -1.875  -60.625  30.1517
   vertex -1.01474 -60.0502  30.1517
   vertex -1.32583 -59.2992  28.9351
  endloop
 endfacet
 facet normal -0.109889 0.552139 0.826479
  outer loop
   vertex -0.549175 -61.1742  30.9645
   vertex        0 -61.0649  30.9645
   vertex -1.01474 -60.0502  30.1517
  endloop
 endfacet
 facet normal 0.163162 -0.820337 0.548111
  outer loop
   vertex 4.24285e-16 -65.9645  28.9351
   vertex  1.32583 -65.7008  28.9351
   vertex  1.01474 -64.9498  30.1517
  endloop
 endfacet
 facet normal -0.999884 -0.00175919 -0.0150981
  outer loop
   vertex       -6 -54.8408   9.3665
   vertex -6.00367 -54.6233  9.58422
   vertex       -6 -51.0447  8.92419
  endloop
 endfacet
 facet normal       -1        0        0
  outer loop
   vertex       -6 -54.9464   8.9248
   vertex       -6 -54.8408   9.3665
   vertex       -6 -51.0447  8.92419
  endloop
 endfacet
 facet normal       -1        0        0
  outer loop
   vertex       -6 -54.8277   8.0279
   vertex       -6 -54.9464   8.9248
   vertex       -6 -51.0447  8.92419
  endloop
 endfacet
 facet normal -0.999525 0.00657563 0.0300942
  outer loop
   vertex -6.00367 -54.6233  9.58422
   vertex       -6 -54.5233  9.68427
   vertex       -6 -51.0447  8.92419
  endloop
 endfacet
 facet normal       -1        0        0
  outer loop
   vertex       -6    -27.5  7.21005
   vertex       -6    -27.5  10.8517
   vertex       -6     -4.5  10.8517
  endloop
 endfacet
 facet normal       -1        0        0
  outer loop
   vertex       -6 -54.8277   8.0279
   vertex       -6 -51.0447  8.92419
   vertex       -6  -54.136  6.36376
  endloop
 endfacet
 facet normal       -1        0        0
  outer loop
   vertex       -6 -43.7068 -3.14023
   vertex       -6 -44.2169  6.61269
   vertex       -6      -30  6.83698
  endloop
 endfacet
 facet normal       -1        0       -0
  outer loop
   vertex       -6 -44.2169  6.61269
   vertex       -6 -43.7068 -3.14023
   vertex       -6  -54.136  6.36376
  endloop
 endfacet
 facet normal       -1        0        0
  outer loop
   vertex       -6      -30 -6.83698
   vertex       -6 -43.7068 -3.14023
   vertex       -6      -30  6.83698
  endloop
 endfacet
 facet normal       -1        0        0
  outer loop
   vertex       -6    -27.5 -7.21005
   vertex       -6      -30 -6.83698
   vertex       -6    -27.5  7.21005
  endloop
 endfacet
 facet normal       -1        0        0
  outer loop
   vertex       -6      -30  6.83698
   vertex       -6    -27.5  7.21005
   vertex       -6      -30 -6.83698
  endloop
 endfacet
 facet normal       -1        0        0
  outer loop
   vertex       -6     -4.5 -10.8517
   vertex       -6    -27.5 -10.8517
   vertex       -6    -27.5 -7.21005
  endloop
 endfacet
 facet normal       -1        0        0
  outer loop
   vertex       -6    -27.5  7.21005
   vertex       -6     -4.5 -10.8517
   vertex       -6    -27.5 -7.21005
  endloop
 endfacet
 facet normal       -1        0       -0
  outer loop
   vertex       -6     -4.5  10.8517
   vertex       -6     -4.5 -10.8517
   vertex       -6    -27.5  7.21005
  endloop
 endfacet
 facet normal       -1        0        0
  outer loop
   vertex       -6  -54.136  6.36376
   vertex       -6 -51.0447  8.92419
   vertex       -6 -44.2169  6.61269
  endloop
 endfacet
 facet normal        1        0        0
  outer loop
   vertex        6 -51.0447  8.92419
   vertex        6 -54.5233  9.68427
   vertex        6 -54.8408   9.3665
  endloop
 endfacet
 facet normal        1        0        0
  outer loop
   vertex        6 -51.0447  8.92419
   vertex        6 -54.8408   9.3665
   vertex        6 -54.9464   8.9248
  endloop
 endfacet
 facet normal        1        0        0
  outer loop
   vertex        6 -51.0447  8.92419
   vertex        6 -54.9464   8.9248
   vertex        6 -54.8277   8.0279
  endloop
 endfacet
 facet normal        1        0        0
  outer loop
   vertex        6     -4.5  10.8517
   vertex        6    -27.5  10.8517
   vertex        6    -27.5  7.21005
  endloop
 endfacet
 facet normal        1        0        0
  outer loop
   vertex        6     -4.5  10.8517
   vertex        6    -27.5  7.21005
   vertex        6     -4.5 -10.8517
  endloop
 endfacet
 facet normal        1        0        0
  outer loop
   vertex        6 -51.0447  8.92419
   vertex        6 -54.8277   8.0279
   vertex        6  -54.136  6.36376
  endloop
 endfacet
 facet normal        1        0        0
  outer loop
   vertex        6      -30  6.83698
   vertex        6 -44.2169  6.61269
   vertex        6 -43.7068 -3.14023
  endloop
 endfacet
 facet normal        1       -0        0
  outer loop
   vertex        6  -54.136  6.36376
   vertex        6 -43.7068 -3.14023
   vertex        6 -44.2169  6.61269
  endloop
 endfacet
 facet normal        1        0        0
  outer loop
   vertex        6 -44.2169  6.61269
   vertex        6 -51.0447  8.92419
   vertex        6  -54.136  6.36376
  endloop
 endfacet
 facet normal        1        0        0
  outer loop
   vertex        6      -30  6.83698
   vertex        6 -43.7068 -3.14023
   vertex        6      -30 -6.83698
  endloop
 endfacet
 facet normal        1       -0        0
  outer loop
   vertex        6      -30 -6.83698
   vertex        6    -27.5 -7.21005
   vertex        6      -30  6.83698
  endloop
 endfacet
 facet normal        1        0        0
  outer loop
   vertex        6    -27.5 -10.8517
   vertex        6     -4.5 -10.8517
   vertex        6    -27.5 -7.21005
  endloop
 endfacet
 facet normal        1        0        0
  outer loop
   vertex        6     -4.5 -10.8517
   vertex        6    -27.5  7.21005
   vertex        6    -27.5 -7.21005
  endloop
 endfacet
 facet normal        1        0       -0
  outer loop
   vertex        6    -27.5 -7.21005
   vertex        6    -27.5  7.21005
   vertex        6      -30  6.83698
  endloop
 endfacet
 facet normal        0        1       -0
  outer loop
   vertex -0.707964     -4.5  1.70918
   vertex -1.30815     -4.5  1.30815
   vertex -3.03712e-15     -4.5     12.4
  endloop
 endfacet
 facet normal       -0        1        0
  outer loop
   vertex       -6     -4.5  10.8517
   vertex -3.03712e-15     -4.5     12.4
   vertex -1.30815     -4.5  1.30815
  endloop
 endfacet
 facet normal        0        1        0
  outer loop
   vertex       -6     -4.5  10.8517
   vertex -1.30815     -4.5  1.30815
   vertex -1.70918     -4.5 0.707964
  endloop
 endfacet
 facet normal        0        1        0
  outer loop
   vertex       -6     -4.5  10.8517
   vertex -1.70918     -4.5 0.707964
   vertex    -1.85     -4.5 3.39839e-16
  endloop
 endfacet
 facet normal        0        1        0
  outer loop
   vertex    -1.85     -4.5 3.39839e-16
   vertex       -6     -4.5 -10.8517
   vertex       -6     -4.5  10.8517
  endloop
 endfacet
 facet normal        0        1       -0
  outer loop
   vertex  1.30815     -4.5  1.30815
   vertex -3.03712e-15     -4.5     12.4
   vertex        6     -4.5  10.8517
  endloop
 endfacet
 facet normal        0        1        0
  outer loop
   vertex -0.707964     -4.5  1.70918
   vertex -3.03712e-15     -4.5     12.4
   vertex 2.2656e-16     -4.5     1.85
  endloop
 endfacet
 facet normal       -0        1       -0
  outer loop
   vertex 2.2656e-16     -4.5     1.85
   vertex -3.03712e-15     -4.5     12.4
   vertex 0.707964     -4.5  1.70918
  endloop
 endfacet
 facet normal        0        1        0
  outer loop
   vertex        6     -4.5  10.8517
   vertex  1.70918     -4.5 0.707964
   vertex  1.30815     -4.5  1.30815
  endloop
 endfacet
 facet normal        0        1        0
  outer loop
   vertex -3.03712e-15     -4.5     12.4
   vertex  1.30815     -4.5  1.30815
   vertex 0.707964     -4.5  1.70918
  endloop
 endfacet
 facet normal        0        1       -0
  outer loop
   vertex     1.85     -4.5 -1.1328e-16
   vertex  1.70918     -4.5 0.707964
   vertex        6     -4.5  10.8517
  endloop
 endfacet
 facet normal        0        1        0
  outer loop
   vertex       -6     -4.5 -10.8517
   vertex -1.70918     -4.5 -0.707964
   vertex -1.30815     -4.5 -1.30815
  endloop
 endfacet
 facet normal        0        1        0
  outer loop
   vertex -0.707964     -4.5 -1.70918
   vertex -1.40505e-14     -4.5    -12.4
   vertex -1.30815     -4.5 -1.30815
  endloop
 endfacet
 facet normal       -0        1        0
  outer loop
   vertex       -6     -4.5 -10.8517
   vertex -1.30815     -4.5 -1.30815
   vertex -1.40505e-14     -4.5    -12.4
  endloop
 endfacet
 facet normal        0        1        0
  outer loop
   vertex        0     -4.5    -1.85
   vertex -1.40505e-14     -4.5    -12.4
   vertex -0.707964     -4.5 -1.70918
  endloop
 endfacet
 facet normal        0        1        0
  outer loop
   vertex       -6     -4.5 -10.8517
   vertex    -1.85     -4.5 3.39839e-16
   vertex -1.70918     -4.5 -0.707964
  endloop
 endfacet
 facet normal        0        1        0
  outer loop
   vertex        6     -4.5 -10.8517
   vertex  1.30815     -4.5 -1.30815
   vertex  1.70918     -4.5 -0.707964
  endloop
 endfacet
 facet normal        0        1        0
  outer loop
   vertex        6     -4.5 -10.8517
   vertex  1.70918     -4.5 -0.707964
   vertex     1.85     -4.5 -1.1328e-16
  endloop
 endfacet
 facet normal        0        1        0
  outer loop
   vertex 0.707964     -4.5 -1.70918
   vertex -1.40505e-14     -4.5    -12.4
   vertex        0     -4.5    -1.85
  endloop
 endfacet
 facet normal        0        1        0
  outer loop
   vertex  1.30815     -4.5 -1.30815
   vertex        6     -4.5 -10.8517
   vertex -1.40505e-14     -4.5    -12.4
  endloop
 endfacet
 facet normal       -0        1        0
  outer loop
   vertex 0.707964     -4.5 -1.70918
   vertex  1.30815     -4.5 -1.30815
   vertex -1.40505e-14     -4.5    -12.4
  endloop
 endfacet
 facet normal        0        1        0
  outer loop
   vertex        6     -4.5  10.8517
   vertex        6     -4.5 -10.8517
   vertex     1.85     -4.5 -1.1328e-16
  endloop
 endfacet
 facet normal -0.195087       -0 -0.980786
  outer loop
   vertex 0.707964     -4.5  1.70918
   vertex 0.707964    -19.5  1.70918
   vertex -4.53119e-16    -19.5     1.85
  endloop
 endfacet
 facet normal -0.831471       -0 -0.555569
  outer loop
   vertex  1.70918     -4.5 0.707964
   vertex  1.70918    -19.5 0.707964
   vertex  1.30815    -19.5  1.30815
  endloop
 endfacet
 facet normal -0.555569       -0 -0.831471
  outer loop
   vertex  1.30815     -4.5  1.30815
   vertex  1.30815    -19.5  1.30815
   vertex 0.707964    -19.5  1.70918
  endloop
 endfacet
 facet normal -0.980786        0 0.195087
  outer loop
   vertex  1.70918     -4.5 -0.707964
   vertex  1.70918    -19.5 -0.707964
   vertex     1.85    -19.5 -1.1328e-16
  endloop
 endfacet
 facet normal -0.555569        0 0.831471
  outer loop
   vertex 0.707964     -4.5 -1.70918
   vertex 0.707964    -19.5 -1.70918
   vertex  1.30815    -19.5 -1.30815
  endloop
 endfacet
 facet normal -0.831471        0 0.555569
  outer loop
   vertex  1.30815     -4.5 -1.30815
   vertex  1.30815    -19.5 -1.30815
   vertex  1.70918    -19.5 -0.707964
  endloop
 endfacet
 facet normal -0.980786       -0 -0.195087
  outer loop
   vertex     1.85     -4.5 -1.1328e-16
   vertex     1.85    -19.5 -1.1328e-16
   vertex  1.70918    -19.5 0.707964
  endloop
 endfacet
 facet normal -0.195087        0 -0.980786
  outer loop
   vertex -4.53119e-16    -19.5     1.85
   vertex -4.53119e-16     -4.5     1.85
   vertex 0.707964     -4.5  1.70918
  endloop
 endfacet
 facet normal -0.831471        0 -0.555569
  outer loop
   vertex  1.30815    -19.5  1.30815
   vertex  1.30815     -4.5  1.30815
   vertex  1.70918     -4.5 0.707964
  endloop
 endfacet
 facet normal -0.555569        0 -0.831471
  outer loop
   vertex  1.30815     -4.5  1.30815
   vertex 0.707964    -19.5  1.70918
   vertex 0.707964     -4.5  1.70918
  endloop
 endfacet
 facet normal -0.980786        0 0.195087
  outer loop
   vertex     1.85    -19.5 -1.1328e-16
   vertex     1.85     -4.5 -1.1328e-16
   vertex  1.70918     -4.5 -0.707964
  endloop
 endfacet
 facet normal -0.555569        0 0.831471
  outer loop
   vertex  1.30815    -19.5 -1.30815
   vertex  1.30815     -4.5 -1.30815
   vertex 0.707964     -4.5 -1.70918
  endloop
 endfacet
 facet normal -0.831471        0 0.555569
  outer loop
   vertex  1.30815     -4.5 -1.30815
   vertex  1.70918    -19.5 -0.707964
   vertex  1.70918     -4.5 -0.707964
  endloop
 endfacet
 facet normal -0.980786        0 -0.195087
  outer loop
   vertex     1.85     -4.5 -1.1328e-16
   vertex  1.70918    -19.5 0.707964
   vertex  1.70918     -4.5 0.707964
  endloop
 endfacet
 facet normal -0.195087        0 0.980786
  outer loop
   vertex 0.707964    -19.5 -1.70918
   vertex        0     -4.5    -1.85
   vertex        0    -19.5    -1.85
  endloop
 endfacet
 facet normal 0.195087        0 -0.980786
  outer loop
   vertex -0.707964     -4.5  1.70918
   vertex -4.53119e-16     -4.5     1.85
   vertex -4.53119e-16    -19.5     1.85
  endloop
 endfacet
 facet normal 0.195087        0 0.980786
  outer loop
   vertex -0.707964     -4.5 -1.70918
   vertex -0.707964    -19.5 -1.70918
   vertex        0    -19.5    -1.85
  endloop
 endfacet
 facet normal 0.831471        0 0.555569
  outer loop
   vertex -1.70918     -4.5 -0.707964
   vertex -1.70918    -19.5 -0.707964
   vertex -1.30815    -19.5 -1.30815
  endloop
 endfacet
 facet normal 0.555569        0 0.831471
  outer loop
   vertex -1.30815     -4.5 -1.30815
   vertex -1.30815    -19.5 -1.30815
   vertex -0.707964    -19.5 -1.70918
  endloop
 endfacet
 facet normal 0.980786        0 -0.195087
  outer loop
   vertex -1.70918     -4.5 0.707964
   vertex -1.70918    -19.5 0.707964
   vertex    -1.85    -19.5 3.39839e-16
  endloop
 endfacet
 facet normal 0.555569        0 -0.831471
  outer loop
   vertex -0.707964     -4.5  1.70918
   vertex -0.707964    -19.5  1.70918
   vertex -1.30815    -19.5  1.30815
  endloop
 endfacet
 facet normal 0.831471        0 -0.555569
  outer loop
   vertex -1.30815     -4.5  1.30815
   vertex -1.30815    -19.5  1.30815
   vertex -1.70918    -19.5 0.707964
  endloop
 endfacet
 facet normal 0.980786        0 0.195087
  outer loop
   vertex    -1.85     -4.5 3.39839e-16
   vertex    -1.85    -19.5 3.39839e-16
   vertex -1.70918    -19.5 -0.707964
  endloop
 endfacet
 facet normal 0.195087       -0 0.980786
  outer loop
   vertex        0    -19.5    -1.85
   vertex        0     -4.5    -1.85
   vertex -0.707964     -4.5 -1.70918
  endloop
 endfacet
 facet normal 0.831471       -0 0.555569
  outer loop
   vertex -1.30815    -19.5 -1.30815
   vertex -1.30815     -4.5 -1.30815
   vertex -1.70918     -4.5 -0.707964
  endloop
 endfacet
 facet normal 0.555569        0 0.831471
  outer loop
   vertex -1.30815     -4.5 -1.30815
   vertex -0.707964    -19.5 -1.70918
   vertex -0.707964     -4.5 -1.70918
  endloop
 endfacet
 facet normal 0.980786        0 -0.195087
  outer loop
   vertex    -1.85    -19.5 3.39839e-16
   vertex    -1.85     -4.5 3.39839e-16
   vertex -1.70918     -4.5 0.707964
  endloop
 endfacet
 facet normal 0.555569        0 -0.831471
  outer loop
   vertex -1.30815    -19.5  1.30815
   vertex -1.30815     -4.5  1.30815
   vertex -0.707964     -4.5  1.70918
  endloop
 endfacet
 facet normal 0.831471        0 -0.555569
  outer loop
   vertex -1.30815     -4.5  1.30815
   vertex -1.70918    -19.5 0.707964
   vertex -1.70918     -4.5 0.707964
  endloop
 endfacet
 facet normal 0.980786        0 0.195087
  outer loop
   vertex    -1.85     -4.5 3.39839e-16
   vertex -1.70918    -19.5 -0.707964
   vertex -1.70918     -4.5 -0.707964
  endloop
 endfacet
 facet normal 0.195087        0 -0.980786
  outer loop
   vertex -0.707964     -4.5  1.70918
   vertex -4.53119e-16    -19.5     1.85
   vertex -0.707964    -19.5  1.70918
  endloop
 endfacet
 facet normal -0.195087        0 0.980786
  outer loop
   vertex 0.707964    -19.5 -1.70918
   vertex 0.707964     -4.5 -1.70918
   vertex        0     -4.5    -1.85
  endloop
 endfacet
 facet normal        0        1        0
  outer loop
   vertex -1.70918    -19.5 0.707964
   vertex -1.30815    -19.5  1.30815
   vertex -0.707964    -19.5  1.70918
  endloop
 endfacet
 facet normal        0        1        0
  outer loop
   vertex  1.30815    -19.5  1.30815
   vertex -1.70918    -19.5 0.707964
   vertex -0.707964    -19.5  1.70918
  endloop
 endfacet
 facet normal       -0        1        0
  outer loop
   vertex -1.70918    -19.5 0.707964
   vertex  1.30815    -19.5  1.30815
   vertex  1.30815    -19.5 -1.30815
  endloop
 endfacet
 facet normal        0        1        0
  outer loop
   vertex  1.30815    -19.5  1.30815
   vertex -4.53119e-16    -19.5     1.85
   vertex 0.707964    -19.5  1.70918
  endloop
 endfacet
 facet normal       -0        1        0
  outer loop
   vertex -0.707964    -19.5  1.70918
   vertex -4.53119e-16    -19.5     1.85
   vertex  1.30815    -19.5  1.30815
  endloop
 endfacet
 facet normal        0        1        0
  outer loop
   vertex  1.70918    -19.5 0.707964
   vertex     1.85    -19.5 -1.1328e-16
   vertex  1.30815    -19.5  1.30815
  endloop
 endfacet
 facet normal       -0        1        0
  outer loop
   vertex    -1.85    -19.5 3.39839e-16
   vertex -1.70918    -19.5 0.707964
   vertex -1.30815    -19.5 -1.30815
  endloop
 endfacet
 facet normal        0        1        0
  outer loop
   vertex -1.70918    -19.5 0.707964
   vertex  1.30815    -19.5 -1.30815
   vertex -1.30815    -19.5 -1.30815
  endloop
 endfacet
 facet normal        0        1        0
  outer loop
   vertex  1.30815    -19.5 -1.30815
   vertex -0.707964    -19.5 -1.70918
   vertex -1.30815    -19.5 -1.30815
  endloop
 endfacet
 facet normal       -0        1        0
  outer loop
   vertex -0.707964    -19.5 -1.70918
   vertex  1.30815    -19.5 -1.30815
   vertex        0    -19.5    -1.85
  endloop
 endfacet
 facet normal        0        1        0
  outer loop
   vertex  1.30815    -19.5 -1.30815
   vertex     1.85    -19.5 -1.1328e-16
   vertex  1.70918    -19.5 -0.707964
  endloop
 endfacet
 facet normal        0        1        0
  outer loop
   vertex  1.30815    -19.5 -1.30815
   vertex  1.30815    -19.5  1.30815
   vertex     1.85    -19.5 -1.1328e-16
  endloop
 endfacet
 facet normal        0        1        0
  outer loop
   vertex  1.30815    -19.5 -1.30815
   vertex 0.707964    -19.5 -1.70918
   vertex        0    -19.5    -1.85
  endloop
 endfacet
 facet normal       -0        1       -0
  outer loop
   vertex -1.70918    -19.5 -0.707964
   vertex    -1.85    -19.5 3.39839e-16
   vertex -1.30815    -19.5 -1.30815
  endloop
 endfacet
endsolid 1 written by HOOPS Exchange
